<svg xmlns="http://www.w3.org/2000/svg" width="32" height="32" viewBox="0 0 32 32">
  <defs>
    <linearGradient id="bb" x1="0" y1="0" x2="1" y2="1">
      <stop offset="0" stop-color="#15663C"/>
      <stop offset="1" stop-color="#22A65B"/>
    </linearGradient>
  </defs>
  <rect width="32" height="32" rx="8" fill="url(#bb)"/>
  <path transform="translate(4 4)" fill="#fff" d="M12 2C7.86 2 4.5 5.36 4.5 9.5c0 5.25 6.2 11.4 7.04 12.2a.66.66 0 0 0 .92 0c.84-.8 7.04-6.95 7.04-12.2C19.5 5.36 16.14 2 12 2Zm0 9.75A2.25 2.25 0 1 1 12 7.25a2.25 2.25 0 0 1 0 4.5Z"/>
</svg>
